<?xml version="1.0" encoding="UTF-8" standalone="no" ?>
<!DOCTYPE svg PUBLIC "-//W3C//DTD SVG 1.1//EN"
  "http://www.w3.org/Graphics/SVG/1.1/DTD/svg11.dtd">
<svg
  height="32pt"
  stroke-miterlimit="10"
  style="fill-rule:nonzero;clip-rule:evenodd;stroke-linecap:round;stroke-linejoin:round;"
  version="1.1"
  viewBox="0 0 36.352 36.352"
  width="32pt"
  xml:space="preserve"
  xmlns="http://www.w3.org/2000/svg"
  xmlns:vectornator="http://vectornator.io"
  xmlns:xlink="http://www.w3.org/1999/xlink"
>
<defs />
<g id="Untitled" vectornator:layerName="Untitled">
<g opacity="1" vectornator:layerName="Group 1">
<path
        d="M36.345 33.122C36.345 34.906 34.9 36.352 33.116 36.352L3.224 36.352C1.44 36.352 0 34.906 0 33.122L0 3.237C0 1.446 1.44 0 3.224 0L33.116 0C34.9 0 36.345 1.446 36.345 3.237L36.345 33.122Z"
        fill="#f7a11a"
        fill-rule="nonzero"
        opacity="1"
        stroke="none"
        vectornator:layerName="path 1"
      />
<g opacity="0" vectornator:layerName="Group 1">
<path
          d="M18.1897 2.87786C18.1897 2.87786 24.6587 3.05786 25.5127 3.23086C26.0367 3.33186 26.4777 3.53686 26.7497 4.01186C26.9187 4.31086 27.2837 15.7739 27.2837 15.7739C27.2837 15.7739 27.2447 16.0849 26.4097 16.4049C25.5747 16.7239 24.9627 17.1579 24.5957 17.7179C24.2297 18.2809 23.0897 20.0289 22.7717 20.5209C22.4527 21.0209 21.8627 21.4689 20.0297 21.4689L18.1967 21.4689L16.4127 21.4689C16.4127 21.4689 15.2237 21.4819 14.5927 21.2369C13.9547 20.9849 13.6567 20.5269 13.6567 20.5269C13.6567 20.5269 11.8987 17.8029 11.8367 17.7179C11.8367 17.7179 11.2197 16.7779 10.0257 16.4049C10.0257 16.4049 9.31273 16.1269 9.14273 15.7609C9.14273 15.7609 9.59673 6.19586 9.71173 4.26186C9.72773 4.05186 9.80073 3.83586 9.80073 3.83586C10.0327 3.47586 10.3507 3.28186 10.9557 3.23086C12.8147 3.06886 18.1897 2.87786 18.1897 2.87786"
          fill="#ffffff"
          fill-rule="nonzero"
          opacity="1"
          stroke="none"
          vectornator:layerName="path 2"
        />
<path
          d="M10.5686 23.4531L10.5686 25.4891C10.5686 25.4891 10.6706 25.9801 11.1586 25.9801L13.1396 25.9801C13.1396 25.9801 13.6356 25.8921 13.6826 25.4731L13.6826 23.7741L10.5686 23.4531Z"
          fill="#ffffff"
          fill-rule="nonzero"
          opacity="1"
          stroke="none"
          vectornator:layerName="path 3"
        />
<path
          d="M25.8665 23.5243L22.9275 23.7683L22.7505 23.7743L22.7505 23.8163L22.7505 25.4723C22.7505 25.4723 22.8535 25.9673 23.3425 25.9673L25.3225 25.9673C25.3225 25.9673 25.8125 25.8723 25.8665 25.4523L25.8665 23.5993L25.8665 23.5643L25.8665 23.5243Z"
          fill="#ffffff"
          fill-rule="nonzero"
          opacity="1"
          stroke="none"
          vectornator:layerName="path 4"
        />
<path
          d="M18.2171 21.8749L18.3121 21.8749L18.4421 21.8749L20.1381 21.8749C21.9641 21.8749 22.5611 21.4269 22.8801 20.9329C23.1981 20.4359 24.3401 18.6869 24.7061 18.1279C25.0791 17.5639 25.6831 17.1319 26.5181 16.8119C26.9861 16.6289 27.2041 16.4519 27.3061 16.3369L27.3061 22.4689C27.3061 22.4689 27.3191 23.5379 26.0361 23.5449L22.5611 23.7999L18.2171 23.8979L13.8531 23.8099L10.3921 23.5519C10.3921 23.5519 9.09607 23.4929 9.09607 22.4449L9.09607 16.3169C9.09607 16.3169 9.44907 16.6899 9.89607 16.8119C10.3441 16.9269 11.3021 17.4499 11.7151 18.1079C12.1371 18.7699 13.5281 20.9189 13.5281 20.9189C13.5281 20.9189 13.9541 21.9339 16.2761 21.8819L18.2171 21.8749Z"
          fill="#ffffff"
          fill-rule="nonzero"
          opacity="1"
          stroke="none"
          vectornator:layerName="path 5"
        />
<path
          d="M11.0501 5.84856C11.0501 5.84856 16.6091 5.32756 25.5061 5.84856L25.5061 4.16656C25.5061 4.16656 16.6771 3.68856 11.0431 4.19256L11.0501 5.84856Z"
          fill="#f7a11a"
          fill-rule="nonzero"
          opacity="1"
          stroke="none"
          vectornator:layerName="path 6"
        />
<path
          d="M9.30594 19.0214C9.30594 19.0214 9.10994 21.2374 12.7669 21.2504C12.7669 21.2504 12.0949 19.7104 10.9549 19.5194C10.9549 19.5194 9.48294 19.2824 9.30594 19.0214"
          fill="#f7a11a"
          fill-rule="nonzero"
          opacity="1"
          stroke="none"
          vectornator:layerName="path 7"
        />
<path
          d="M27.1223 19.0214C27.1223 19.0214 27.3183 21.2374 23.6663 21.2504C23.6663 21.2504 24.3403 19.7104 25.4733 19.5194C25.4733 19.5194 26.9453 19.2824 27.1223 19.0214"
          fill="#f7a11a"
          fill-rule="nonzero"
          opacity="1"
          stroke="none"
          vectornator:layerName="path 8"
        />
<path
          d="M9.89578 15.8007L10.2218 15.8007L26.5858 15.8007L26.2258 6.78471C26.0488 6.44471 25.6008 6.44171 25.6008 6.44171C19.0598 5.86771 11.8098 6.42471 10.9558 6.45771C10.3638 6.48971 10.3438 6.93671 10.3438 6.93671L9.89578 15.8007Z"
          fill="#f7a11a"
          fill-rule="nonzero"
          opacity="1"
          stroke="none"
          vectornator:layerName="path 9"
        />
<path
          d="M13.7649 31.9736L14.3829 31.9736C14.5989 31.9736 14.7429 31.9376 14.8369 31.8656C14.9189 31.7866 14.9659 31.6856 14.9659 31.5646C14.9659 31.4446 14.9189 31.3496 14.8369 31.2826C14.7489 31.2076 14.5989 31.1736 14.3829 31.1736L13.7649 31.1736L13.7649 31.9736ZM13.7649 30.4196L14.2939 30.4196C14.4849 30.4196 14.6189 30.3926 14.6949 30.3246C14.7629 30.2576 14.8109 30.1656 14.8109 30.0396C14.8109 29.9246 14.7629 29.8356 14.6949 29.7676C14.6189 29.7076 14.4919 29.6726 14.3009 29.6726L13.7649 29.6726L13.7649 30.4196ZM12.5359 28.8726L14.8249 28.8726C15.2039 28.8726 15.4949 28.9676 15.6929 29.1586C15.9029 29.3416 15.9969 29.5776 15.9969 29.8566C15.9969 30.0906 15.9309 30.2906 15.7869 30.4536C15.6859 30.5696 15.5419 30.6586 15.3589 30.7196C15.6459 30.7926 15.8489 30.9096 15.9839 31.0746C16.1199 31.2416 16.1809 31.4446 16.1809 31.6956C16.1809 31.9026 16.1339 32.0886 16.0449 32.2516C15.9439 32.4156 15.8139 32.5436 15.6529 32.6386C15.5509 32.7006 15.3939 32.7486 15.1909 32.7686C14.9119 32.8086 14.7299 32.8226 14.6409 32.8226L12.5359 32.8226L12.5359 28.8726Z"
          fill="#ffffff"
          fill-rule="nonzero"
          opacity="1"
          stroke="none"
          vectornator:layerName="path 10"
        />
<path
          d="M18.7669 31.3154L18.3329 29.8984L17.8989 31.3154L18.7669 31.3154ZM19.0249 32.1704L17.6329 32.1704L17.4439 32.8224L16.1959 32.8224L17.6819 28.8734L19.0109 28.8734L20.4969 32.8224L19.2209 32.8224L19.0249 32.1704Z"
          fill="#ffffff"
          fill-rule="nonzero"
          opacity="1"
          stroke="none"
          vectornator:layerName="path 11"
        />
<path
          d="M20.5305 31.5195L21.6985 31.4445C21.7185 31.6305 21.7735 31.7775 21.8555 31.8725C21.9705 32.0365 22.1535 32.1145 22.3915 32.1145C22.5605 32.1145 22.6965 32.0755 22.7925 31.9945C22.8865 31.9095 22.9335 31.8175 22.9335 31.7085C22.9335 31.6075 22.8865 31.5155 22.7985 31.4305C22.7105 31.3495 22.5005 31.2795 22.1745 31.2045C21.6365 31.0855 21.2575 30.9225 21.0275 30.7255C20.8015 30.5215 20.6805 30.2675 20.6805 29.9605C20.6805 29.7615 20.7425 29.5645 20.8645 29.3875C20.9785 29.2055 21.1555 29.0635 21.3935 28.9615C21.6245 28.8515 21.9505 28.8045 22.3565 28.8045C22.8665 28.8045 23.2465 28.9005 23.5185 29.0865C23.7835 29.2735 23.9385 29.5715 23.9935 29.9835L22.8385 30.0455C22.8045 29.8735 22.7435 29.7415 22.6485 29.6605C22.5475 29.5785 22.4185 29.5405 22.2425 29.5405C22.0985 29.5405 21.9905 29.5715 21.9225 29.6325C21.8555 29.6895 21.8065 29.7615 21.8065 29.8495C21.8065 29.9155 21.8355 29.9725 21.9025 30.0195C21.9575 30.0745 22.0925 30.1215 22.3105 30.1695C22.8445 30.2815 23.2265 30.3995 23.4635 30.5145C23.6885 30.6305 23.8565 30.7795 23.9675 30.9565C24.0685 31.1255 24.1215 31.3225 24.1215 31.5395C24.1215 31.7905 24.0545 32.0255 23.9115 32.2395C23.7675 32.4555 23.5715 32.6125 23.3215 32.7275C23.0705 32.8325 22.7595 32.8905 22.3705 32.8905C21.6985 32.8905 21.2305 32.7615 20.9725 32.5035C20.7145 32.2455 20.5655 31.9145 20.5305 31.5195"
          fill="#ffffff"
          fill-rule="nonzero"
          opacity="1"
          stroke="none"
          vectornator:layerName="path 12"
        />
</g>
<path
        d="M24.7482 28.0342L11.6038 28.0342L11.6038 29.3487C11.6038 30.0746 11.0154 30.6631 10.2894 30.6631L8.97499 30.6631C8.24905 30.6631 7.66056 30.0746 7.66056 29.3487L7.66056 28.0342L6.34613 28.0342L6.34613 17.5188L5.03169 17.5188L5.03169 12.2611L6.34613 12.2611L6.34613 8.31777C6.34613 6.86589 7.52311 5.68891 8.97499 5.68891L27.377 5.68891C28.8289 5.68891 30.0059 6.86589 30.0059 8.31777L30.0059 12.2611L31.3203 12.2611L31.3203 17.5188L30.0059 17.5188L30.0059 28.0342L28.6914 28.0342L28.6914 29.3487C28.6914 30.0746 28.103 30.6631 27.377 30.6631L26.0626 30.6631C25.3366 30.6631 24.7482 30.0746 24.7482 29.3487L24.7482 28.0342ZM8.97499 8.31777L8.97499 20.1476L27.377 20.1476L27.377 8.31777L8.97499 8.31777ZM8.97499 22.7765L8.97499 25.4054L14.2327 25.4054L14.2327 22.7765L8.97499 22.7765ZM22.1193 22.7765L22.1193 25.4054L27.377 25.4054L27.377 22.7765L22.1193 22.7765Z"
        fill="#ffffff"
        fill-rule="nonzero"
        opacity="1"
        stroke="none"
        vectornator:layerName="path"
      />
</g>
</g>
</svg>
